# xmcd CD database file
#
# Track frame offsets:
#	150
#	9872
#	23240
#	41005
#	51002
#	65790
#	78362
#	84402
#	96940
#	110117
#	119920
#	141940
#	154135
#	161737
#	183215
#
# Disc length: 2599 seconds
#
# Revision: 0
# Processed by: cddbd v1.5.1PL2 Copyright (c) Steve Scherf et al.
# Submitted via: CDex 1.70beta2
#
DISCID=ca0a250f
DTITLE=Willie "The Lion" Smith - Pork and Beans - 1201 Music
DYEAR=1966
DGENRE=Jazz
TTITLE0=Pork And Beans
TTITLE1=Moonlight Cocktail
TTITLE2=Spanish Venus
TTITLE3=Junk Man Rag
TTITLE4=Squeeze Me
TTITLE5=Love Will Find A Way
TTITLE6=I'm Just Wild About Harry
TTITLE7=Memories Of You
TTITLE8=Alexander's Ragtime Band
TTITLE9=All Of Me
TTITLE10=Ain't Misbehavin'
TTITLE11=The Man I Love
TTITLE12=Summertime
TTITLE13=Ain't She Sweet
TTITLE14=Dardanella
EXTD=YEAR: 1966
EXTT0=
EXTT1=
EXTT2=
EXTT3=
EXTT4=
EXTT5=
EXTT6=
EXTT7=
EXTT8=
EXTT9=
EXTT10=
EXTT11=
EXTT12=
EXTT13=
EXTT14=
PLAYORDER=
